<svg id="レイヤー_1" data-name="レイヤー 1" xmlns="http://www.w3.org/2000/svg" viewBox="0 0 128 128"><defs><style>.cls-1{stroke:#231815;stroke-miterlimit:10;stroke-width:0.25px;}</style></defs><title>stamp</title><path class="cls-1" d="M125.66,53.79a2.5,2.5,0,0,0-2-1.22l-9.82-.76,7.49-6.39a2.5,2.5,0,0,0-.39-4.08,34.3,34.3,0,0,0-27.44-2.58A45,45,0,0,0,79.29,47a45,45,0,0,0,3.42-16.1A34.3,34.3,0,0,0,71.77,5.58a2.5,2.5,0,0,0-4,.89L64,15.57l-3.76-9.1a2.5,2.5,0,0,0-4-.89,34.3,34.3,0,0,0-10.94,25.3A45,45,0,0,0,48.73,47a45,45,0,0,0-14.26-8.22A34.3,34.3,0,0,0,7,41.34a2.5,2.5,0,0,0-.39,4.08l7.49,6.39-9.82.76a2.5,2.5,0,0,0-2.08,3.53A34.3,34.3,0,0,0,22.92,74.31a41.83,41.83,0,0,0,12.86,1.84c1.17,0,2.34,0,3.5-.11a45,45,0,0,0-12.22,11A34.29,34.29,0,0,0,21,114a2.5,2.5,0,0,0,3.76,1.63l8.39-5.15L30.88,120a2.5,2.5,0,0,0,2.43,3.09l.28,0a34.29,34.29,0,0,0,23.72-14A45,45,0,0,0,64,94a45,45,0,0,0,6.7,15,34.3,34.3,0,0,0,23.72,14l.28,0A2.5,2.5,0,0,0,97.14,120l-2.31-9.57,8.39,5.15A2.5,2.5,0,0,0,107,114a34.31,34.31,0,0,0-6-26.89A45,45,0,0,0,88.74,76c1.16.07,2.33.11,3.5.11a41.83,41.83,0,0,0,12.86-1.84,34.3,34.3,0,0,0,20.68-18.22A2.5,2.5,0,0,0,125.66,53.79Zm-49,13.86a3.27,3.27,0,0,1-3.37-.89.79.79,0,0,0-.82-.2L66.59,68.4a.75.75,0,0,0-.38,1.15l3.54,5a.81.81,0,0,0,.78.35,3.29,3.29,0,1,1-2.32,1.65.78.78,0,0,0-.07-.83l-3.55-5a.75.75,0,0,0-1.21,0l-3.63,4.9a.81.81,0,0,0-.09.85,3.29,3.29,0,1,1-2.28-1.7.78.78,0,0,0,.76-.33l3.64-4.91a.75.75,0,0,0-.36-1.15l-5.8-1.94a.79.79,0,0,0-.82.18,3.29,3.29,0,1,1,.91-2.7.78.78,0,0,0,.55.62L62,66.46a.75.75,0,0,0,1-.7l.06-6.12a.79.79,0,0,0-.42-.72,3.29,3.29,0,1,1,2.87,0,.8.8,0,0,0-.45.72L65,65.77a.75.75,0,0,0,1,.72l5.83-1.84a.78.78,0,0,0,.56-.61,3.29,3.29,0,1,1,4.23,3.61Z"/></svg>