<svg id="レイヤー_1" data-name="レイヤー 1" xmlns="http://www.w3.org/2000/svg" viewBox="0 0 128 128"><title>stamp</title><path d="M67.94,54.37a28,28,0,0,0,5.5-39.72A2.07,2.07,0,0,1,73,13.08a2,2,0,0,1,.83-1.34,43.3,43.3,0,0,1,48.93-.37A2,2,0,0,1,121.34,15,13.91,13.91,0,0,0,110.15,18a12,12,0,0,0-2.89,14.55,2,2,0,0,1,0,1.71,2,2,0,0,1-1.24,1.1c-.36.11-.72.23-1,.37C99.25,38,96.38,44,97.86,50.42a2,2,0,0,1-.57,1.88,2,2,0,0,1-1.95.49,12.7,12.7,0,0,0-3.4-.48,11.65,11.65,0,0,0-10.41,6.31,2,2,0,0,1-1.69,1,2.08,2.08,0,0,1-.76-.12A27.2,27.2,0,0,0,69.21,58h0a2,2,0,0,1-1.26-3.66Z"/><path d="M54.17,68.14a28,28,0,0,1-39.72,5.5,2.07,2.07,0,0,0-1.57-.42,2,2,0,0,0-1.34.83A43.3,43.3,0,0,0,11.17,123a2,2,0,0,0,3.67-1.44,13.91,13.91,0,0,1,2.92-11.18,12,12,0,0,1,14.55-2.89,2,2,0,0,0,1.71,0,2,2,0,0,0,1.1-1.24c.11-.36.23-.72.37-1,2.35-5.75,8.28-8.62,14.74-7.14a2,2,0,0,0,1.88-.57,2,2,0,0,0,.49-1.95,12.7,12.7,0,0,1-.48-3.4,11.65,11.65,0,0,1,6.31-10.41,2,2,0,0,0,1-1.69,2.08,2.08,0,0,0-.12-.76,27.2,27.2,0,0,1-1.51-9.87h0a2,2,0,0,0-3.66-1.26Z"/></svg>