<svg id="レイヤー_1" data-name="レイヤー 1" xmlns="http://www.w3.org/2000/svg" viewBox="0 0 128 128"><title>stamp</title><rect x="52.56" y="51.83" width="24.45" height="24.45" rx="7.39" ry="7.39"/><path d="M47.36,68.89V62.06l-26.3-4a8.75,8.75,0,1,1,5.79-16.16L48.24,54.61a12.62,12.62,0,0,1,3.26-4.71L30.41,35.82A15.11,15.11,0,0,0,6.9,48.36L6.84,79.48a16,16,0,0,0,26,12.41l17.83-14.5A12.53,12.53,0,0,1,47.36,68.89Z"/><path d="M122.68,48.36A15.11,15.11,0,0,0,99.17,35.82L78.08,49.91a12.62,12.62,0,0,1,3.26,4.71l21.39-12.73a8.75,8.75,0,1,1,5.79,16.16l-26.3,4v6.82a12.53,12.53,0,0,1-3.32,8.49l17.83,14.5a16,16,0,0,0,26-12.41Z"/></svg>