<svg id="レイヤー_1" data-name="レイヤー 1" xmlns="http://www.w3.org/2000/svg" viewBox="0 0 128 128"><title>stamp</title><path d="M111.9,47.4l-18.25,13a10.69,10.69,0,0,1-16.21-4.91L67.77,30a3.25,3.25,0,0,0-6.09,0L52,55.52a10.69,10.69,0,0,1-16.21,4.91l-18.25-13a3.25,3.25,0,0,0-5,3.62L26.48,95.78a4.16,4.16,0,0,0,4,2.92H99a4.16,4.16,0,0,0,4-2.92L116.9,51A3.25,3.25,0,0,0,111.9,47.4Z"/><path d="M97.41,104.32H32a4.66,4.66,0,0,0,0,9.32H97.41a4.66,4.66,0,1,0,0-9.32Z"/><circle cx="10.85" cy="39.23" r="5.63"/><path d="M64.73,25.09a5.63,5.63,0,1,0-5.63-5.63A5.63,5.63,0,0,0,64.73,25.09Z"/><path d="M118.62,33.61a5.63,5.63,0,1,0,5.63,5.63A5.63,5.63,0,0,0,118.62,33.61Z"/></svg>