<svg id="レイヤー_1" data-name="レイヤー 1" xmlns="http://www.w3.org/2000/svg" viewBox="0 0 128 128"><defs><style>.cls-1{fill:#231815;}</style></defs><title>stamp</title><path class="cls-1" d="M107.05,61.58A42.78,42.78,0,0,0,96.59,35a4.18,4.18,0,0,0-1-4.48,45.28,45.28,0,0,0-62.95,0,4.18,4.18,0,0,0-1,4.48A42.78,42.78,0,0,0,21.18,61.25,16.31,16.31,0,0,0,9.44,76.9v8.62a16.31,16.31,0,0,0,16.31,16.31h.73a8.5,8.5,0,0,0,8.5-8.5V69.09a8.51,8.51,0,0,0-6.76-8.32,35.81,35.81,0,0,1,8.63-21.11,4.09,4.09,0,0,0,4.06-.92,33.62,33.62,0,0,1,46.41,0,4.09,4.09,0,0,0,4.06.92,35.81,35.81,0,0,1,8.62,21,8.5,8.5,0,0,0-7.74,8.47V93.32a8.5,8.5,0,0,0,8.5,8.5h.73A16.31,16.31,0,0,0,117.8,85.52V76.9A16.3,16.3,0,0,0,107.05,61.58Z"/></svg>