<svg id="レイヤー_1" data-name="レイヤー 1" xmlns="http://www.w3.org/2000/svg" viewBox="0 0 128 128"><title>stamp</title><path d="M111.63,4.24,106.86,9a3.89,3.89,0,0,1-4.2.85A30.42,30.42,0,0,0,62,46.26a4.56,4.56,0,0,1-2.12,5.26,23.38,23.38,0,0,0-5.35,4.05,23.62,23.62,0,0,0-3.8,4.91,4.64,4.64,0,0,1-5.25,2.19,30.41,30.41,0,0,0-36.3,40.65,3.89,3.89,0,0,1-.85,4.2l-4.78,4.78a3.9,3.9,0,0,0,0,5.52L9.77,124a3.9,3.9,0,0,0,5.52,0l4-4a3.93,3.93,0,0,1,4.56-.69,30.47,30.47,0,0,0,37.64-46,3.38,3.38,0,0,1-.19-3.93A24.81,24.81,0,0,1,68.8,62a3.39,3.39,0,0,1,3.87.21,30.47,30.47,0,0,0,45.93-37.69A3.93,3.93,0,0,1,119.3,20l4-4a3.9,3.9,0,0,0,0-5.52l-6.18-6.18A3.9,3.9,0,0,0,111.63,4.24ZM55.06,106.3a22.64,22.64,0,1,1,0-28.58A22.64,22.64,0,0,1,55.06,106.3Zm53.85-53.85a22.64,22.64,0,1,1,0-28.58A22.64,22.64,0,0,1,108.91,52.44Z"/></svg>