<svg id="レイヤー_1" data-name="レイヤー 1" xmlns="http://www.w3.org/2000/svg" viewBox="0 0 128 128"><title>stamp</title><path d="M59.53,94.84a19.36,19.36,0,0,0-8.24-13A14.44,14.44,0,0,0,39.44,80.3a12.41,12.41,0,0,0-8.5,7.48c-1.73,4.45-1.5,8.2,1.64,13.37a3.39,3.39,0,0,0,4.35,1.44A3.23,3.23,0,0,0,38.22,98C36.08,94.57,36,92.66,37,90.12a6.06,6.06,0,0,1,4.22-3.6,8,8,0,0,1,6.69.84A13,13,0,0,1,53.18,96c1.7,9.42-4.61,19.55-14.07,20.81-5.38.72-9.11,1-15.58-3.1-4.83-3-8.15-10-9.38-16A26.67,26.67,0,0,1,26.41,69.92a124.64,124.64,0,0,0,47.31-51.5c4.48-9,14.63-14.68,24.12-11.7s13.37,16.61,7,28.64h0a11.5,11.5,0,0,1,9.26,1.6c6.06,4.11,6.54,15.34.49,24.66q-3,4.72-6.37,9.23a8.93,8.93,0,0,1,6.33,3.94c3.64,5.38,1.32,15.48-5.73,23.13h0c-15.79,17.62-37.6,23-55.86,22.88a1.74,1.74,0,0,1-1.18-3A25.34,25.34,0,0,0,59.53,94.84Z"/></svg>