<svg id="レイヤー_1" data-name="レイヤー 1" xmlns="http://www.w3.org/2000/svg" viewBox="0 0 128 128"><title>stamp</title><path d="M63.72,3.46A60.48,60.48,0,1,0,124.2,63.93,60.55,60.55,0,0,0,63.72,3.46Zm44.55,84.19-5.52-3.19a43.79,43.79,0,0,0,5-18.55h6.37A50.12,50.12,0,0,1,108.27,87.65Zm-95-22h6.37a43.79,43.79,0,0,0,4.93,18.57l-5.52,3.19A50.12,50.12,0,0,1,13.28,65.67Zm5.89-25.45,5.52,3.19a43.79,43.79,0,0,0-5,18.55H13.29A50.12,50.12,0,0,1,19.17,40.22Zm95,22h-6.37a43.79,43.79,0,0,0-4.93-18.57l5.52-3.19A50.12,50.12,0,0,1,114.15,62.2Zm-11.37,0H74.64a1.06,1.06,0,0,1-.53-2l24.4-14.09A38.82,38.82,0,0,1,102.78,62.2ZM72.31,57a1.06,1.06,0,0,1-1.45-1.45l14.09-24.4A39.41,39.41,0,0,1,96.67,42.91ZM67.68,53.6a1.06,1.06,0,0,1-2-.53V24.88a38.81,38.81,0,0,1,16,4.37Zm-4,15.48a5.15,5.15,0,1,1,5.15-5.15A5.15,5.15,0,0,1,63.72,69.08Zm2-49.2V13.51a50.12,50.12,0,0,1,21.74,5.88l-3.19,5.52A43.79,43.79,0,0,0,65.7,19.88Zm-3.72,0A43.79,43.79,0,0,0,43.41,24.8l-3.19-5.52A50.12,50.12,0,0,1,62,13.5Zm0,5V53a1.06,1.06,0,0,1-2,.53L45.91,29.14A38.82,38.82,0,0,1,62,24.87ZM56.75,55.34a1.06,1.06,0,0,1-1.45,1.45L30.9,42.71A39.41,39.41,0,0,1,42.69,31ZM53.39,60a1.06,1.06,0,0,1-.53,2H24.66a38.81,38.81,0,0,1,4.37-16Zm-28.73,5.7H52.79a1.06,1.06,0,0,1,.53,2L28.92,81.74A38.82,38.82,0,0,1,24.66,65.67ZM55.13,70.9a1.06,1.06,0,0,1,1.45,1.45L42.49,96.75A39.41,39.41,0,0,1,30.77,85Zm4.64,3.36a1.06,1.06,0,0,1,2,.53V103a38.81,38.81,0,0,1-16-4.37Zm2,33.73v6.37A50.12,50.12,0,0,1,40,108.48L43.2,103A43.79,43.79,0,0,0,61.74,108Zm3.72,0A43.79,43.79,0,0,0,84,103.07l3.19,5.52a50.12,50.12,0,0,1-21.76,5.78Zm0-5V74.86a1.06,1.06,0,0,1,2-.53l14.09,24.4A38.82,38.82,0,0,1,65.46,103Zm5.23-30.47a1.06,1.06,0,0,1,1.45-1.45l24.4,14.09A39.4,39.4,0,0,1,84.75,96.88Zm3.36-4.63a1.06,1.06,0,0,1,.53-2h28.2a38.81,38.81,0,0,1-4.37,16Zm32.47-30.68L101,40.4A44.44,44.44,0,0,0,87.45,26.78l3.19-5.52A50.86,50.86,0,0,1,106.52,37.22ZM37,21.13l3.19,5.52A44.44,44.44,0,0,0,26.57,40.2L21,37A50.86,50.86,0,0,1,37,21.13ZM20.92,90.65l5.52-3.19A44.44,44.44,0,0,0,40,101.08l-3.19,5.52A50.86,50.86,0,0,1,20.92,90.65Zm69.52,16.08-3.19-5.52a44.44,44.44,0,0,0,13.62-13.55l5.52,3.19A50.86,50.86,0,0,1,90.44,106.73Z"/></svg>