<svg id="レイヤー_1" data-name="レイヤー 1" xmlns="http://www.w3.org/2000/svg" viewBox="0 0 128 128"><title>stamp</title><path d="M104.63,34.85a2,2,0,0,0-1.5-.87,2,2,0,0,0-1.61.63,53.69,53.69,0,0,1-39,17,53.69,53.69,0,0,1-39-17,2,2,0,0,0-3.11.24,51,51,0,0,0,0,57.45,2,2,0,0,0,1.5.87H22a2,2,0,0,0,1.46-.63,53.38,53.38,0,0,1,78.06,0,2,2,0,0,0,3.11-.24,51,51,0,0,0,0-57.45Z"/><path d="M62.49,42.58a44.55,44.55,0,0,0,33.25-15,2,2,0,0,0-.2-2.85,51,51,0,0,0-66.11,0,2,2,0,0,0-.2,2.85A44.55,44.55,0,0,0,62.49,42.58Z"/><path d="M62.49,84.58a44.55,44.55,0,0,0-33.25,15,2,2,0,0,0,.2,2.85,51,51,0,0,0,66.11,0,2,2,0,0,0,.2-2.85A44.55,44.55,0,0,0,62.49,84.58Z"/></svg>