<svg id="レイヤー_1" data-name="レイヤー 1" xmlns="http://www.w3.org/2000/svg" viewBox="0 0 128 128"><title>stamp</title><path d="M5.24,116.41l8.22,8.22a2.32,2.32,0,0,0,3.28,0l1.77-1.77a4.56,4.56,0,0,1,5.32-.79c7.37,3.76,17.56,3.51,32.63-11.55,12-12,17.08-20.48,9.57-34.92a4.46,4.46,0,0,1,.08-4.25,15.22,15.22,0,0,1,5.61-5.61A4.46,4.46,0,0,1,76,65.65c14.44,7.51,22.92,2.43,34.92-9.57C126,41,126.2,30.81,122.45,23.45a4.56,4.56,0,0,1,.79-5.32L125,16.36a2.32,2.32,0,0,0,0-3.28l-8.22-8.22a2.32,2.32,0,0,0-3.28,0l-3,3a4.5,4.5,0,0,1-3.88,1.26c-6.22-1-14.32,3.42-27.22,18.15C71,36.94,65.6,46.68,65.83,53.9a4.1,4.1,0,0,1-2,3.76A15.26,15.26,0,0,0,58,63.4a4.1,4.1,0,0,1-3.76,2c-7.22-.23-17,5.13-26.62,13.58C12.93,91.93,8.53,100,9.51,106.25a4.5,4.5,0,0,1-1.26,3.88l-3,3A2.32,2.32,0,0,0,5.24,116.41ZM83.17,31.5c15.75-17.74,22.27-17.27,27.77-11.78s13.76,13.93-4.83,32.53c-10.92,10.92-18.05,15-31.37,6.53C67.9,54.45,72.92,43,83.17,31.5ZM20.1,110.56c-5.49-5.49-6-12,11.78-27.77,11.54-10.25,22.95-15.28,27.28-8.43,8.43,13.31,4.39,20.45-6.53,31.37C34,124.32,25.59,116.05,20.1,110.56Z"/></svg>