<svg id="レイヤー_1" data-name="レイヤー 1" xmlns="http://www.w3.org/2000/svg" viewBox="0 0 128 128"><title>stamp</title><path d="M113.55,91.76C98.44,83,84.46,73.82,84.46,65.56s14-17.47,29.09-26.19a2.5,2.5,0,1,0-2.5-4.33C95.95,43.76,81,51.26,73.82,47.13S65.68,26.29,65.68,8.85a2.5,2.5,0,0,0-5,0c0,17.44-1,34.16-8.14,38.29S30.42,43.76,15.32,35a2.5,2.5,0,1,0-2.5,4.33C27.92,48.09,41.9,57.3,41.9,65.56S27.92,83,12.82,91.76a2.5,2.5,0,1,0,2.5,4.33C30.42,87.36,45.39,79.86,52.54,84s8.14,20.84,8.14,38.29a2.5,2.5,0,0,0,5,0c0-17.44,1-34.16,8.14-38.29s22.12,3.37,37.23,12.09a2.5,2.5,0,1,0,2.5-4.33Z"/></svg>