<svg id="レイヤー_1" data-name="レイヤー 1" xmlns="http://www.w3.org/2000/svg" viewBox="0 0 128 128"><defs><style>.cls-1{stroke:#231815;stroke-miterlimit:10;stroke-width:0.25px;}</style></defs><title>stamp</title><path class="cls-1" d="M102.73,58.14C100.75,22.62,66.88,9.92,57,7A4.94,4.94,0,0,0,52.24,8C45,14.67,21.12,38.89,24.12,69.62s31.52,45.6,40,49.36a5,5,0,0,0,4.62-.33C77,113.58,104.72,93.66,102.73,58.14Zm-31,27.58V86a94.44,94.44,0,0,1-3.36,23.58,1.5,1.5,0,0,1-1.44,1.08l-.27,0A1.5,1.5,0,0,1,65.39,109a205.32,205.32,0,0,0,.17-23c-.12-1.9-.21-3.83-.3-5.76l-.41-5.72-.48-5.74c-.1-1.15-.22-2.31-.35-3.46-.08-.75-.16-1.51-.24-2.26-.35-3.58-.78-7.32-1.33-11.43-.22-2-.5-3.91-.76-5.72s-.54-3.81-.83-5.71c-1.36-8.78-2.68-16-4.17-22.75a1.5,1.5,0,0,1,2.83-.95A117.43,117.43,0,0,1,66.86,39l.67,2.86.57,2.93c.36,1.85.74,3.82,1.06,5.82.66,3.94,1.15,7.93,1.59,11.68l.17,1.88c.12,1.34.25,2.68.34,4,0,.7.09,1.38.14,2.07.09,1.27.17,2.55.23,3.82l.13,5.9C71.78,81.94,71.73,83.86,71.69,85.72Z"/></svg>