<svg id="レイヤー_1" data-name="レイヤー 1" xmlns="http://www.w3.org/2000/svg" viewBox="0 0 128 128"><title>stamp</title><path d="M47.22,76,33.54,81.54A3.82,3.82,0,0,1,30,81.19L17.73,73.11a1.77,1.77,0,0,0-1.45-.26,1.69,1.69,0,0,0-1.23,1.74l1.05,14.73a3.82,3.82,0,0,1-1.43,3.26L3.14,101.8a1.71,1.71,0,0,0-.59,1.68,1.69,1.69,0,0,0,1.24,1.28l14.34,3.55a3.82,3.82,0,0,1,2.66,2.37L26,124.49a1.69,1.69,0,0,0,3,.3l7.81-12.54a3.82,3.82,0,0,1,3.07-1.8l14.75-.67a1.68,1.68,0,0,0,1-.43,1.7,1.7,0,0,0,.56-1.19A1.74,1.74,0,0,0,55.8,107L46.32,95.71a3.82,3.82,0,0,1-.76-3.48L49.48,78a1.68,1.68,0,0,0-2.26-2Z"/><path d="M119.46,34.1l-2.7,1.18-.57.26-2.67,1.23-.73.35-2.48,1.2-.83.42-2.34,1.19-.91.48L104,41.6l-1,.52-2.15,1.2-1,.56L97.8,45.11l-1,.6-2,1.24-1,.63-2,1.26-1,.66-2,1.3-1,.68L85.85,52.8l-1,.69L83,54.86l-1,.7L80.08,57l-.93.7-1.91,1.49-.88.69-1.94,1.57-.81.66-2,1.68-.7.59q-1.07.92-2.12,1.85l-.54.48q-1.19,1.07-2.37,2.15l-.25.23Q60.38,74,55.48,79.23l-.38.42q-1,1.1-2,2.21l-.56.64-.13.15L49.49,93.2l1,1.21Q55.6,89.06,61,84.17a178.78,178.78,0,0,1,63.93-37,.64.64,0,0,0,.15-1.15c-1.79-1.13-3.6-2.22-5.41-3.26a1.68,1.68,0,0,1-.82-1.79c.42-2.09.85-4.19,1.3-6.27A.53.53,0,0,0,119.46,34.1Z"/><path d="M111.88,18.17l-2.68,1.45-.51.29q-1.42.79-2.83,1.6l-.74.43-2.56,1.51-.87.53-2.38,1.47-1,.61L96.09,27.5l-1,.67-2.16,1.45-1,.72-2.08,1.45-1.07.76-2,1.46-1.07.79-2,1.49-1.07.82-1.93,1.52-1.05.84L77.71,41l-1,.86L74.8,43.47l-1,.87L71.93,46l-1,.87-1.85,1.7-.93.86-1.86,1.77-.88.84-1.88,1.86-.8.8q-1,1-1.93,2l-.7.73q-1,1.07-2,2.17l-.55.59q-1.13,1.23-2.24,2.48L55,63q-3.82,4.33-7.4,8.88a5.7,5.7,0,0,1,5.86,4.62l.33-.35L55,74.86l1.19-1.24,1.18-1.2,1.2-1.21L59.79,70,61,68.85l1.52-1.43,1.85-1.71,1.25-1.14,3-2.65Q73,58.1,77.7,54.56l.56-.42q1.25-.94,2.51-1.87l.81-.59L83.89,50l.94-.65,2.24-1.52,1-.67,2.22-1.44,1-.67,2.24-1.39,1.05-.64,2.29-1.36,1-.6,2.38-1.35,1-.54,2.54-1.37.85-.45q1.41-.74,2.84-1.46l.59-.3q4.82-2.41,9.79-4.55a.52.52,0,0,0,0-.93c-1.93-1.06-3.88-2.07-5.82-3a1.68,1.68,0,0,1-.92-1.85c.45-2.17.91-4.36,1.38-6.53A.52.52,0,0,0,111.88,18.17Z"/><path d="M104.19,2.32A216.07,216.07,0,0,0,31.63,77.43l.49.32,9.76-4,.93-1.25.79-1c.52-.67,1-1.34,1.55-2l.61-.76q4.1-5.15,8.51-10L55,58c.55-.6,1.11-1.19,1.67-1.79l.95-1L59.2,53.5l1.06-1.09,1.59-1.58L63,49.71l1.58-1.52,1.19-1.13,1.59-1.47,1.23-1.13L70.17,43l1.26-1.11,1.62-1.4,1.29-1.09L76,38.07,77.3,37,79,35.67l1.34-1L82,33.31l1.35-1L85.09,31l1.37-1,1.76-1.26,1.37-1,1.81-1.24,1.37-.91,1.86-1.22L96,23.56l1.92-1.21,1.33-.82,2-1.21,1.29-.76,2.07-1.21,1.21-.68L108,16.45l1.1-.59,1.5-.81a.55.55,0,0,0,0-1c-2-.91-3.94-1.78-5.91-2.58a1.68,1.68,0,0,1-1-1.91c.46-2.22.94-4.44,1.43-6.65A.57.57,0,0,0,104.19,2.32Z"/></svg>