<svg id="レイヤー_1" data-name="レイヤー 1" xmlns="http://www.w3.org/2000/svg" viewBox="0 0 128 128"><title>stamp</title><ellipse cx="44.1" cy="88.32" rx="2.64" ry="17" transform="translate(-49.54 57.05) rotate(-45)"/><path d="M113.65,8.62a3,3,0,0,0-2.17-1.1,3,3,0,0,0-2.27.88L40.29,77.3c-.55-.43-1.08-.85-1.59-1.22-2.15-1.57-6.15-4.49-8.73-1.9s.33,6.59,1.9,8.73c.51.7,1.08,1.43,1.69,2.19v0L12.83,105.87a3,3,0,0,0,0,4.24l9.48,9.48a3,3,0,0,0,4.24,0L47.1,99l.2,0,.16,0c4.35,3.52,6.87,4.51,8.44,4.51a3,3,0,0,0,2.35-1.09h0c1-1,2.83-2.85-2.93-10.17L94.24,53.37C124.15,23.45,114.81,10,113.65,8.62ZM27.37,111.73a.31.31,0,0,1-.28.09l-5-.88a.31.31,0,0,1-.25-.25l-.88-5a.31.31,0,0,1,.36-.36l5,.88a.31.31,0,0,1,.25.25l.88,5A.31.31,0,0,1,27.37,111.73ZM34.09,105a.31.31,0,0,1-.28.09l-5-.88a.31.31,0,0,1-.25-.25l-.88-5a.31.31,0,0,1,.36-.36l5,.88a.31.31,0,0,1,.25.25l.88,5A.31.31,0,0,1,34.09,105Zm6.72-6.72a.31.31,0,0,1-.28.09l-5-.88a.31.31,0,0,1-.25-.25l-.88-5a.31.31,0,0,1,.36-.36l5,.88L40,93l.88,5A.31.31,0,0,1,40.81,98.29ZM51.38,87.74c-1-1.06-2.07-2.19-3.29-3.41s-2.17-2.12-3.24-3.11l65-65c.1,5.15-2.65,15.7-19.84,32.89Z"/></svg>