<svg id="レイヤー_1" data-name="レイヤー 1" xmlns="http://www.w3.org/2000/svg" viewBox="0 0 128 128"><title>stamp</title><path d="M95.18,40.81a6.54,6.54,0,0,1-2.19.85,32,32,0,0,1-4.75.45l.36,1.38A7.69,7.69,0,0,1,87.33,50a6.72,6.72,0,0,1-5.39,2.73,6.57,6.57,0,0,1-1.72-.23A41,41,0,0,1,70,47.83a45.38,45.38,0,0,1-3,5.77,6.68,6.68,0,0,1-11.37,0,45.53,45.53,0,0,1-3-5.73,41,41,0,0,1-10.12,4.52,6.6,6.6,0,0,1-1.72.22,6.71,6.71,0,0,1-5.38-2.76A7.7,7.7,0,0,1,34.2,43.3l.37-1.37a31.31,31.31,0,0,1-4.24-.45,6.58,6.58,0,0,1-1.5-.49c-6.18,4.76-9.89,11.92-9.89,22.38,0,23.86,19.34,55.79,43.2,55.79s43.2-31.93,43.2-55.79C105.33,52.78,101.51,45.56,95.18,40.81Zm-54.76,36c-1,0-3.47-.48-3.47-4.95,0-3.17,2.5-7,2.61-7.12a1.07,1.07,0,0,1,1.72,0c.11.16,2.61,4,2.61,7.12C43.89,76.31,41.47,76.79,40.42,76.79ZM51.58,98.18c-1,0-3.47-.48-3.47-4.95,0-3.17,2.5-7,2.61-7.12a1.07,1.07,0,0,1,1.72,0c.11.16,2.61,4,2.61,7.12C55,97.69,52.62,98.18,51.58,98.18Zm9.93-21.39c-1,0-3.47-.48-3.47-4.95,0-3.17,2.5-7,2.61-7.12a1.07,1.07,0,0,1,1.72,0c.11.16,2.61,4,2.61,7.12C65,76.31,62.56,76.79,61.51,76.79Zm9.93,21.39c-1,0-3.47-.48-3.47-4.95,0-3.17,2.5-7,2.61-7.12a1.07,1.07,0,0,1,1.72,0c.11.16,2.61,4,2.61,7.12C74.92,97.69,72.49,98.18,71.45,98.18ZM82.6,76.79c-1,0-3.47-.48-3.47-4.95,0-3.17,2.5-7,2.61-7.12a1.07,1.07,0,0,1,1.72,0c.11.16,2.61,4,2.61,7.12C86.07,76.31,83.65,76.79,82.6,76.79Z"/><path d="M93.26,33l-1.15-1.72c-4-6-10.28-9.08-16.58-8.15a91,91,0,0,1-9.89.87c.09-.82.19-1.66.32-2.51a40.89,40.89,0,0,1,1.61-6.41c.94-3,1.68-5.38.59-7.12a3.86,3.86,0,0,0-2.9-1.66c-2.85-.42-5,1-6.28,4.22-1,2.57-1.57,6.18-2.07,9.67-.18,1.27-.3,2.52-.35,3.73-3-.16-6-.45-8.68-.86-6.3-1-12.57,2.1-16.63,8.06l-1.16,1.72a2.7,2.7,0,0,0-.29,2.27,2,2,0,0,0,1.46,1.44,28.35,28.35,0,0,0,4.84.4,28.82,28.82,0,0,0,5.17-.44c-1.39,4.84-2.22,8-2.24,8.07a2.68,2.68,0,0,0,.4,2.24,1.75,1.75,0,0,0,1.38.75,1.56,1.56,0,0,0,.41-.05A35.51,35.51,0,0,0,55,39.8a48,48,0,0,0,4.86,11.08,1.69,1.69,0,0,0,3,0,48.07,48.07,0,0,0,4.95-11.15,35.46,35.46,0,0,0,13.81,7.91,1.56,1.56,0,0,0,.41.06A1.75,1.75,0,0,0,83.34,47a2.68,2.68,0,0,0,.41-2.24c0-.06-.84-3.27-2.22-8.18a28.47,28.47,0,0,0,5.69.58,28.35,28.35,0,0,0,4.84-.37,2,2,0,0,0,1.47-1.43A2.7,2.7,0,0,0,93.26,33Z"/></svg>