<svg id="レイヤー_1" data-name="レイヤー 1" xmlns="http://www.w3.org/2000/svg" viewBox="0 0 128 128"><defs><style>.cls-1{fill:#231815;}</style></defs><title>stamp</title><path class="cls-1" d="M103.17,26.29a129.05,129.05,0,0,0-27-5.81A1.39,1.39,0,0,1,75,19.11l-.06-6.36a1,1,0,0,1,1-1l3.92,0A2.5,2.5,0,0,0,82.28,8.9a2.6,2.6,0,0,0-2.65-2.22l-4.8,0L50,7l-4.8,0a2.6,2.6,0,0,0-2.61,2.27A2.5,2.5,0,0,0,45.07,12L49,12a1,1,0,0,1,1,1l.06,6.08a1.39,1.39,0,0,1-1.25,1.4,129.06,129.06,0,0,0-27,5.81,6.52,6.52,0,0,0-4.45,6.2V94.34A11.65,11.65,0,0,0,19.48,101l5.77,8.22a11.65,11.65,0,0,0,9.53,5h.85a1.55,1.55,0,0,1,1.55,1.55v2.5a2.48,2.48,0,0,0,2.48,2.48h4.64a2.48,2.48,0,0,0,2.48-2.48v-2.5a1.55,1.55,0,0,1,1.55-1.55H76.63a1.55,1.55,0,0,1,1.55,1.55v2.5a2.48,2.48,0,0,0,2.48,2.48h4.64a2.48,2.48,0,0,0,2.48-2.48v-2.5a1.55,1.55,0,0,1,1.55-1.55h.85a11.65,11.65,0,0,0,9.53-5L105.5,101a11.65,11.65,0,0,0,2.12-6.69V32.49A6.52,6.52,0,0,0,103.17,26.29ZM56,11.92l12.82-.13a1,1,0,0,1,1,1l.06,6a1.11,1.11,0,0,1-1.17,1.12c-2.09-.11-4.19-.18-6.29-.18s-4.16.07-6.24.17a1.11,1.11,0,0,1-1.17-1.09L55,12.95A1,1,0,0,1,56,11.92Zm-2.55,19h18a3.5,3.5,0,1,1,0,7h-18a3.5,3.5,0,0,1,0-7Zm-8,69.31a5,5,0,1,1,5-5A5,5,0,0,1,45.47,100.23Zm34,0a5,5,0,1,1,5-5A5,5,0,0,1,79.51,100.23ZM94,76.73a5.38,5.38,0,0,1-5.38,5.38H36.36A5.38,5.38,0,0,1,31,76.73V49.91a5.38,5.38,0,0,1,5.38-5.38H88.62A5.38,5.38,0,0,1,94,49.91Z"/></svg>