<svg id="レイヤー_1" data-name="レイヤー 1" xmlns="http://www.w3.org/2000/svg" viewBox="0 0 128 128"><title>stamp</title><path d="M111.87,91.54c0-.08,0-.16,0-.24l0-.7a129.45,129.45,0,0,0-2.89-36.92l-.3-1.33a2.5,2.5,0,0,0-3.55-1.69l-1.22.61A129.45,129.45,0,0,0,79.36,67.32a59.92,59.92,0,0,0-30.13,0A129.47,129.47,0,0,0,24.6,51.27l-1.22-.61a2.5,2.5,0,0,0-3.55,1.69l-.3,1.33A129.44,129.44,0,0,0,16.64,90.6l0,.7c0,.08,0,.16,0,.24a40.62,40.62,0,0,0-4.79,25.88,2.5,2.5,0,0,0,4.95,0c3-20.54,23.36-36,47.41-36s44.44,15.49,47.41,36a2.5,2.5,0,0,0,4.95,0,40.61,40.61,0,0,0-4.79-25.88Z"/></svg>