<svg id="レイヤー_1" data-name="レイヤー 1" xmlns="http://www.w3.org/2000/svg" viewBox="0 0 128 128"><defs><style>.cls-1{fill:#fff;}</style></defs><title>stamp</title><path d="M34.39,46c.92,1.12,4.3.49,5.44-.3C42.18,44,47,42.19,49,41.45a2.22,2.22,0,0,1,1.74.1,10,10,0,0,0,3.44.94,12.34,12.34,0,0,0,6-.72h0c1-.39,1.93,1,1.46,2.12a36.63,36.63,0,0,1-7.12,11.39,25.28,25.28,0,0,1-2.33,2.06,22.37,22.37,0,0,0-7.74,13.44A2.6,2.6,0,0,0,47,73.87H80.57A2.6,2.6,0,0,0,83,72.19q.94-2.44,2-4.8l0-.06.37-.7c.39-.86.8-1.71,1.22-2.55h0a40.51,40.51,0,0,0,3.24-16,41.87,41.87,0,0,0-.54-6.66h0C88.11,27,79.53,16.59,67.18,12.83a25.43,25.43,0,0,0-6.75-1.11h0a10,10,0,0,0-7.8-4.54c-.61,0-1,.74-.79,1.41a24.33,24.33,0,0,1,1,4.09h0a26.45,26.45,0,0,0-3.95,1.48,1.4,1.4,0,0,0-.18,2.29q.93.7,1.82,1.48h0a13.58,13.58,0,0,0-5.15,6.46h0c-1.93,4.2-8,7.34-9.43,11.19a5.37,5.37,0,0,1-1.43,2.07,6,6,0,0,0-.74,7.48Q34.06,45.56,34.39,46Z"/><path class="cls-1" d="M97.81,84.56c3.22,0,3.22-5,0-5s-3.22,5,0,5Z"/><rect x="41.89" y="77.24" width="43" height="5.28" rx="2.64" ry="2.64"/><path d="M29.73,118.6v.06a3.08,3.08,0,0,0,3,3.67h61a3.08,3.08,0,0,0,3-3.67v-.06a3.06,3.06,0,0,0-3-2.4h-61A3.06,3.06,0,0,0,29.73,118.6Z"/><path d="M43.68,98.53a34.32,34.32,0,0,0-8.32,8.22,3.7,3.7,0,0,0,3,5.83H88.07a3.7,3.7,0,0,0,3-5.83,34.34,34.34,0,0,0-8.27-8.19,5.1,5.1,0,0,1-1.76-6.27,19.21,19.21,0,0,0,1.26-3.68,2.29,2.29,0,0,0-2.23-2.81H46.37a2.29,2.29,0,0,0-2.23,2.81,19.2,19.2,0,0,0,1.28,3.74A5,5,0,0,1,43.68,98.53Z"/><path class="cls-1" d="M110.92,61.76c3.22,0,3.22-5,0-5s-3.22,5,0,5Z"/></svg>