<svg id="レイヤー_1" data-name="レイヤー 1" xmlns="http://www.w3.org/2000/svg" viewBox="0 0 128 128"><title>stamp</title><path d="M80.36,45.48a26.49,26.49,0,0,1-5-7.61,3.43,3.43,0,0,0-5.75-1L27.69,85.21a7.08,7.08,0,0,0-.52,8.8,6.87,6.87,0,0,0,9.65,1.4L88.18,56.78A3.43,3.43,0,0,0,87.61,51,26.49,26.49,0,0,1,80.36,45.48ZM71.48,57.94A3.06,3.06,0,0,1,67,57.67a3.18,3.18,0,0,1,.39-4.32l3.78-3.53a3.18,3.18,0,0,1,4.33-.08,3.06,3.06,0,0,1,0,4.44Z"/><path d="M23.31,106.63h0a31.48,31.48,0,0,1,3.08-5.08,1.53,1.53,0,0,0-.33-2.16,11.45,11.45,0,0,1-1.83-1.58h0a1.57,1.57,0,0,0-2.42.1A37.76,37.76,0,0,0,18,104.13h0c-3.37,7.15-2.93,13.69,1.24,19a1.57,1.57,0,0,0,2.3.19l2-1.89a1.55,1.55,0,0,0,.17-2.06C21.08,115.85,20.94,111.66,23.31,106.63Z"/><path d="M82.7,21.79a1.8,1.8,0,0,0-3.07.79,20.74,20.74,0,0,0,23.52,25.23,1.8,1.8,0,0,0,1-3Z"/><path d="M113.51,43A20.81,20.81,0,1,0,85.68,12.08l-.44.42a3.6,3.6,0,0,0-.11,5l23.46,25.16A3.56,3.56,0,0,0,113.51,43Z"/></svg>