<svg id="レイヤー_1" data-name="レイヤー 1" xmlns="http://www.w3.org/2000/svg" viewBox="0 0 128 128"><title>stamp</title><path d="M98.23,56.56a10.67,10.67,0,0,0-7.43-4,8,8,0,0,0-6.13,2.4,6.84,6.84,0,0,0-2.1,5.87c.35,2.61,1.47,4.35,4.36,6a1.87,1.87,0,0,0,2.48-.46,1.78,1.78,0,0,0-.6-2.56c-1.94-1.08-2.51-2-2.71-3.46a3.34,3.34,0,0,1,1.07-2.86,4.43,4.43,0,0,1,3.45-1.38,7.17,7.17,0,0,1,4.87,2.74c3.33,4.08,3,10.65-1.23,13.78-2.4,1.78-4.13,2.89-8.34,2.66-3.14-.17-6.6-2.65-8.79-5.21a14.69,14.69,0,0,1-1.5-16.66A68.65,68.65,0,0,0,84.68,16c-.23-5.52,3.13-11,8.5-12.07s10.88,4.44,11,11.94h0a6.34,6.34,0,0,1,4.89-1.7c4,.37,7.24,5.65,6.82,11.75q-.21,3.09-.6,6.15a4.92,4.92,0,0,1,4.1.21c3.19,1.62,4.77,7.11,3.41,12.67h0C119.89,57.6,110.81,66,102,70.83a1,1,0,0,1-1.37-1.13A14,14,0,0,0,98.23,56.56Z"/><path d="M57.19,97.61a10.67,10.67,0,0,1-4-7.43A8,8,0,0,1,55.54,84a6.84,6.84,0,0,1,5.87-2.1c2.61.35,4.35,1.47,6,4.36A1.87,1.87,0,0,1,67,88.78a1.78,1.78,0,0,1-2.56-.6c-1.08-1.94-2-2.51-3.46-2.71a3.34,3.34,0,0,0-2.86,1.07A4.43,4.43,0,0,0,56.69,90a7.17,7.17,0,0,0,2.74,4.87c4.08,3.33,10.65,3,13.78-1.23,1.78-2.4,2.89-4.13,2.66-8.34-.17-3.14-2.65-6.6-5.21-8.79A14.69,14.69,0,0,0,54,75a68.65,68.65,0,0,1-37.43,9.06c-5.52-.23-11,3.13-12.07,8.5s4.44,10.88,11.94,11h0a6.34,6.34,0,0,0-1.7,4.89c.37,4,5.65,7.24,11.75,6.82q3.09-.21,6.15-.6a4.92,4.92,0,0,0,.21,4.1c1.62,3.19,7.11,4.77,12.67,3.41h0c12.7-2.91,21.11-12,25.93-20.81A1,1,0,0,0,70.33,100,14,14,0,0,1,57.19,97.61Z"/></svg>