<svg id="レイヤー_1" data-name="レイヤー 1" xmlns="http://www.w3.org/2000/svg" viewBox="0 0 128 128"><title>stamp</title><path d="M6.43,109A57.11,57.11,0,0,0,31.11,62a56.59,56.59,0,0,0-11-33.68,4.22,4.22,0,0,1-.75-3.24,4,4,0,0,1,1.78-2.68,88.35,88.35,0,0,1,99.8,2.28,4.12,4.12,0,0,1-3.17,7.39,28.37,28.37,0,0,0-23,5.25C86,44.3,83.25,56.15,88,66.81a4.16,4.16,0,0,1,0,3.48,4,4,0,0,1-2.6,2.16c-.75.2-1.48.43-2.16.68-11.87,4.44-18.09,16.34-15.46,29.62a4,4,0,0,1-1.28,3.8,4.1,4.1,0,0,1-4,.87,25.92,25.92,0,0,0-6.9-1.18,23.77,23.77,0,0,0-21.63,12.22,4,4,0,0,1-3.52,2,4.25,4.25,0,0,1-1.53-.29,55.49,55.49,0,0,0-20-3.69h0A4.13,4.13,0,0,1,6.43,109Z"/></svg>