<svg id="レイヤー_1" data-name="レイヤー 1" xmlns="http://www.w3.org/2000/svg" viewBox="0 0 128 128"><title>stamp</title><path d="M94.23,74.12q.28-.52.54-1.08c2.61-5.42,4.92-13.45,7.49-26.06a134.93,134.93,0,0,1,7.35-23.1c3-7.53,4.76-12.08,3-15.33a5.42,5.42,0,0,0-3.9-2.68c-9-1.85-28.89,5-33.84,29.24-2.2,10.78-3,22.22-1.73,31.09a59.65,59.65,0,0,0-19.47,0c1.22-8.87.47-20.31-1.73-31.09C47,10.88,27.14,4,18.1,5.87a5.42,5.42,0,0,0-3.9,2.68c-1.76,3.24,0,7.79,3,15.33A134.93,134.93,0,0,1,24.55,47C27.12,59.59,29.43,67.62,32,73q.27.56.54,1.08c-13.3,8.39-22,22-22,37.44a40.92,40.92,0,0,0,.44,5.86,2.5,2.5,0,0,0,4.95,0c3-20.54,23.36-36,47.41-36s44.44,15.49,47.41,36a2.5,2.5,0,0,0,4.95,0,41,41,0,0,0,.44-5.86C116.21,96.16,107.53,82.51,94.23,74.12Z"/></svg>