<svg id="レイヤー_1" data-name="レイヤー 1" xmlns="http://www.w3.org/2000/svg" viewBox="0 0 128 128"><title>stamp</title><path d="M82.63,32.26C74,24.68,69.63,16.78,69.26,8.13a4,4,0,0,0-4-3.87h-.16a4,4,0,0,0-4,4l-.45,84.44A24,24,0,0,0,55.36,92h-.13C42,92,31.34,102.68,31.3,111.54c0,7.67,7,11.72,14,11.76h.15a26.42,26.42,0,0,0,17.29-6.23A22.56,22.56,0,0,0,70.6,99.84l.32-59A26.55,26.55,0,0,1,88.49,66.31c0,7.94-3.59,16.36-6.68,22.82a4,4,0,0,0,3.6,5.72h0A4,4,0,0,0,88.83,93c7-11.32,10.46-21.4,10.51-30.8C99.39,52.1,93.77,42,82.63,32.26Z"/></svg>