<svg id="レイヤー_1" data-name="レイヤー 1" xmlns="http://www.w3.org/2000/svg" viewBox="0 0 128 128"><title>stamp</title><path d="M111.87,51.54c0-.08,0-.16,0-.24l0-.7a129.45,129.45,0,0,0-2.89-36.92l-.3-1.33a2.5,2.5,0,0,0-3.55-1.69l-1.22.61A129.45,129.45,0,0,0,79.36,27.32a59.91,59.91,0,0,0-30.13,0A129.43,129.43,0,0,0,24.6,11.27l-1.22-.61a2.5,2.5,0,0,0-3.55,1.69l-.3,1.33A129.45,129.45,0,0,0,16.64,50.6l0,.7c0,.08,0,.16,0,.24a41.19,41.19,0,0,0-5.23,20c0,25.45,23.69,46.16,52.8,46.16S117.1,97,117.1,71.56A41.19,41.19,0,0,0,111.87,51.54Z"/></svg>