<svg id="レイヤー_1" data-name="レイヤー 1" xmlns="http://www.w3.org/2000/svg" viewBox="0 0 128 128"><defs><style>.cls-1{stroke:#231815;stroke-miterlimit:10;stroke-width:0.25px;}</style></defs><title>stamp</title><path class="cls-1" d="M89.19,48.57a1.67,1.67,0,0,1-2.51,1.54,44.09,44.09,0,0,0-15.6-5.62,44.09,44.09,0,0,0-16.55,1,1.67,1.67,0,0,1-2-2.19c1.8-5.16,7-15,20.57-13S88.92,43.12,89.19,48.57Z"/><path class="cls-1" d="M72.16,89.09A1.67,1.67,0,0,1,72,86.15,44.09,44.09,0,0,0,84.36,75.1a44.09,44.09,0,0,0,7-15,1.67,1.67,0,0,1,2.86-.7c3.69,4,9.82,13.29,1.67,24.28S77.09,91.45,72.16,89.09Z"/><path class="cls-1" d="M106.82,31.44a1.67,1.67,0,0,1-2.31,2c-5.94-2.82-19.33-8.2-33.27-7.13S45.62,32.9,40.52,35.67A1.67,1.67,0,0,1,38.07,34c1.15-7.19,6.59-23.7,32.33-25.67S104.42,23.67,106.82,31.44Z"/><path class="cls-1" d="M34.58,23.81a1.67,1.67,0,0,1,1.78,2.4,90.37,90.37,0,0,0-9.18,30.9C25.85,71,29.33,83.54,31.19,89a1.67,1.67,0,0,1-2.09,2.13C21.87,88.85,5.19,80.68,9.28,54.86,13.19,30.15,28,24.91,34.58,23.81Z"/><path class="cls-1" d="M24.51,95.92a1.67,1.67,0,0,1,2.29-1.83,107.56,107.56,0,0,0,32,7.73,79.43,79.43,0,0,0,30.56-4.37,1.67,1.67,0,0,1,2,2.43C87,107.13,75.87,121.43,57,119.78,31.17,117.54,25.68,102.43,24.51,95.92Z"/><path class="cls-1" d="M95,106.54A1.67,1.67,0,0,1,93.18,104a73.47,73.47,0,0,0,10.71-29c2.58-20.32-3.66-31.71-7.82-36.85a1.67,1.67,0,0,1,1.68-2.67c8.78,1.93,25.87,9.11,24.57,35.69C121.09,96.56,103.29,104.31,95,106.54Z"/><path class="cls-1" d="M45,41.54a1.67,1.67,0,0,1,2.53,1.74c-1.31,6.49-3.39,20.36.51,28.9C51.81,80.52,63,88.26,68.7,91.84a1.67,1.67,0,0,1-.59,3.07c-8.14,1.45-26.2,2-34.06-18.76C26.49,56.14,38.71,45.48,45,41.54Z"/><path class="cls-1" d="M55.39,52.07a1.67,1.67,0,0,1,2.83.78,37.38,37.38,0,0,0,5.4,12.56,37.37,37.37,0,0,0,9.8,9.51,1.67,1.67,0,0,1-.27,2.94C68.75,79.68,60,81.61,53.59,72.34S52.12,55.56,55.39,52.07Z"/><path class="cls-1" d="M78.21,70a1.67,1.67,0,0,1-2.89-.75A16.9,16.9,0,0,0,64.81,56.35a1.67,1.67,0,0,1-.15-3c4.15-2.4,11.78-5.52,16.55.32S81.39,66.39,78.21,70Z"/></svg>