<svg id="レイヤー_1" data-name="レイヤー 1" xmlns="http://www.w3.org/2000/svg" viewBox="0 0 128 128"><title>stamp</title><path d="M64.65,34.69a1.88,1.88,0,0,1-.74,0C35.58,27.82,7.3,39.07,15.22,79.22,20,103.61,41.91,129.9,64,123.72a1.4,1.4,0,0,1,.64,0c22,6.19,43.93-20.11,48.74-44.5C121.25,39.07,93,27.82,64.65,34.69Z"/><path d="M71,4.12a3.86,3.86,0,0,0-2.9-1.66c-2.85-.42-5,1-6.28,4.22-1,2.57-1.57,6.18-2.07,9.67a31,31,0,0,0,0,10.11c.85,4.24,2.67,5.37,4,5.57a3.06,3.06,0,0,0,.44,0A2.68,2.68,0,0,0,66,31.48c1.56-1.23,1.83-4,2.23-8.3.16-1.67.34-3.57.62-5.52a40.89,40.89,0,0,1,1.61-6.41C71.36,8.24,72.11,5.86,71,4.12Z"/><path d="M88.39,23c-4.85,4.33-12.44,4.19-15.78,3.87A1.87,1.87,0,0,1,70.91,25c.07-3.35.78-10.91,5.64-15.24C81.93,4.95,90.68,5.65,93.26,6a.87.87,0,0,1,.76.86C94.07,9.44,93.77,18.21,88.39,23Z"/></svg>