<svg id="レイヤー_1" data-name="レイヤー 1" xmlns="http://www.w3.org/2000/svg" viewBox="0 0 128 128"><title>stamp</title><path d="M92.94,8.45a3.87,3.87,0,0,0-2.14-2.56c-5.52-3-9.14,3.69-12.63,10.15a31.72,31.72,0,0,0-3.38,9.08,2,2,0,0,0,.45,1.67,2.07,2.07,0,0,0,1.59.74h4.56a2,2,0,0,0,1.85-1.16l.5-1c.72-1.51,1.54-3.21,2.48-4.94a40.78,40.78,0,0,1,3.72-5.46C91.85,12.43,93.37,10.46,92.94,8.45Z"/><path d="M91.31,45.83a7.64,7.64,0,0,0,2.23-5.38V37.9c0-4.42-3.9-8-8.7-8H38c-4.8,0-8.7,3.59-8.7,8v2.56a7.64,7.64,0,0,0,2.23,5.38C23.37,52.17,19.4,62.41,19.4,77a77.12,77.12,0,0,0,1.08,12.88c3,17.81,20.63,31.24,40.93,31.24s37.9-13.43,40.93-31.24A77.09,77.09,0,0,0,103.41,77C103.41,62.41,99.45,52.17,91.31,45.83Zm1.32,22.46c-1.6.14-6.83,1.29-6.83,10,0,4.61-2.73,7-5.42,7A4.38,4.38,0,0,1,77,83.68a9.16,9.16,0,0,1-1.77-6c0-5.93-.76-9.22-2.54-11a5.25,5.25,0,0,0-4-1.42h-.17c-6.91,0-6.91,8.62-6.91,11.46,0,7.06-2.18,7.06-3.11,7.06-2.42,0-3.64-2.23-3.64-6.62,0-3.26-.71-5.54-2.18-7a5.86,5.86,0,0,0-4.29-1.6c-3.76.07-6.28,3.55-6.28,8.67,0,13.26-2.9,13.26-3.85,13.26-2.1,0-4.09,0-4.09-13.51,0-4-1.87-9.92-7-9.92a6.31,6.31,0,0,0-2,.31c1.56-9.23,5.61-15.65,12.26-19.49a2.5,2.5,0,0,0-.59-4.58,3.18,3.18,0,0,1-2.53-2.86V37.9c0-1.66,1.66-3,3.7-3H84.83c2,0,3.7,1.35,3.7,3v2.56A3.18,3.18,0,0,1,86,43.31a2.5,2.5,0,0,0-.59,4.58C92.57,52,96.72,59.14,98,69.56A9.43,9.43,0,0,0,92.63,68.29Z"/></svg>