<svg id="レイヤー_1" data-name="レイヤー 1" xmlns="http://www.w3.org/2000/svg" viewBox="0 0 128 128"><title>stamp</title><path d="M70.29,12.57c9,11.48,8.86,28.35.37,42.42a1.8,1.8,0,0,1-2.84.32l-.09-.1c-1.11-1.11-8.81-7-11.33-8.55l-.32-.2-.12.36a35.23,35.23,0,0,0-1.55,6.9,1.91,1.91,0,0,1-.55,1.13l0,0,0,0a1.91,1.91,0,0,1-1.13.55A35.23,35.23,0,0,0,45.77,57l-.36.12.49.78a136.35,136.35,0,0,0,8.26,10.87l0,0a1.83,1.83,0,0,1-.38,2.88c-13.87,8.17-30.35,8.24-41.7-.41a1.8,1.8,0,0,0-2.8.81c-6.2,17.3-6.93,35.19-1.9,50.73a1.8,1.8,0,0,0,3.41,0,19.88,19.88,0,0,1,26.36-12.54,1.8,1.8,0,0,0,2.25-.83,15.51,15.51,0,0,1,21.24-6.12A1.79,1.79,0,0,0,63.31,102c.62-3.7,1.73-8.06,5.21-10.12,10.13-6,18.37,2.54,23.83,3.16a1.8,1.8,0,0,0,2-2c-.62-5.46-9.67-14-3.16-23.83,2.23-3.37,6.41-4.59,10.12-5.21a1.79,1.79,0,0,0,1.24-2.65,15.51,15.51,0,0,1,6.12-21.24,1.8,1.8,0,0,0,.83-2.25,19.88,19.88,0,0,1,13.72-26.68,1.8,1.8,0,0,0,.12-3.44c-16-5.37-34.45-4.6-52.27,2A1.8,1.8,0,0,0,70.29,12.57Z"/></svg>